# Blender 4.3.2
# www.blender.org
mtllib Head.mtl
o Cube.003
v -21.756140 133.344437 14.585765
v -21.756140 162.177414 14.585764
v -21.756140 133.344437 -15.447576
v -21.756140 162.177414 -15.447574
v 21.756140 133.344437 14.585765
v 21.756140 162.177414 14.585764
v 21.756140 133.344437 -15.447576
v 21.756140 162.177414 -15.447574
vn -1.0000 -0.0000 -0.0000
vn -0.0000 -0.0000 -1.0000
vn 1.0000 -0.0000 -0.0000
vn -0.0000 -0.0000 1.0000
vn -0.0000 -1.0000 -0.0000
vn -0.0000 1.0000 -0.0000
vt 0.196078 0.204237
vt 0.000093 0.204237
vt 0.000093 0.000093
vt 0.196078 0.000093
vt 0.196078 0.999907
vt 0.000093 0.999907
vt 0.000093 0.704144
vt 0.196078 0.704144
vt 0.000093 0.500000
vt 0.196078 0.500000
vt 0.196265 0.591806
vt 0.196265 0.296043
vt 0.400408 0.296043
vt 0.400408 0.591806
vt 0.400408 0.000093
vt 0.400408 0.295856
vt 0.196265 0.295856
vt 0.196265 0.000093
s 0
usemtl FaceMat
f 1/1/1 2/2/1 4/3/1 3/4/1
f 3/5/2 4/6/2 8/7/2 7/8/2
f 7/8/3 8/7/3 6/9/3 5/10/3
f 5/10/4 6/9/4 2/2/4 1/1/4
f 3/11/5 7/12/5 5/13/5 1/14/5
f 8/15/6 4/16/6 2/17/6 6/18/6
